<?xml version="1.0" encoding="utf-8"?>
<!-- Generator: Adobe Illustrator 29.6.1, SVG Export Plug-In . SVG Version: 9.03 Build 0)  -->
<svg version="1.0" id="레이어_2_00000109709796673986443030000000748010299558802605_"
	 xmlns="http://www.w3.org/2000/svg" xmlns:xlink="http://www.w3.org/1999/xlink" x="0px" y="0px" viewBox="0 0 1024 1024"
	 style="enable-background:new 0 0 1024 1024;" xml:space="preserve">
<style type="text/css">
	.st0{fill:#181828;stroke:#B7A24B;stroke-width:9;stroke-miterlimit:10;}
	.st1{fill:#B7A24B;stroke:#B7A24B;stroke-miterlimit:10;}
	.st2{fill:none;stroke:#B7A24B;stroke-width:9;stroke-miterlimit:10;}
	.st3{fill:none;}
	.st4{font-family:'ArialMT';}
	.st5{font-size:12px;}
	.st6{fill:#B7A24B;stroke:#B7A24B;stroke-width:9;stroke-miterlimit:10;}
	.st7{fill:#B7A24B;}
	.st8{fill:none;stroke:#B7A24B;stroke-width:10.0006;stroke-miterlimit:10.0006;}
	.st9{fill:#B7A24B;stroke:#221714;stroke-width:0.1513;}
</style>
<circle class="st0" cx="506.9" cy="512" r="470.86"/>
<path class="st1" d="M431.26,484.39"/>
<path class="st1" d="M235.66,456.29"/>
<circle class="st2" cx="506.9" cy="523.52" r="375.42"/>
<path id="SVGID_x5F_1_x5F_" class="st3" d="M506.9,124.88c220.16,0,398.64,178.48,398.64,398.64S727.06,922.16,506.9,922.16
	S108.26,743.68,108.26,523.52S286.74,124.88,506.9,124.88z"/>
<text class="st4 st5"> </text>
<path id="SVGID_x5F_00000011717503797992621640000015634581069614862526_x5F_" class="st3" d="M506.9,148.1
	c-225.49,0-408.29,182.8-408.29,408.29s182.8,408.29,408.29,408.29s408.29-182.8,408.29-408.29S732.39,148.1,506.9,148.1z"/>
<text class="st4 st5"> </text>
<path class="st6" d="M202.5,778.6"/>
<path class="st1" d="M523.51,315.26c0,0,30.38-9.29,42.81-4.87c12.44,4.42,75.58,33.17,75.58,33.17l22.96,66.32l-66.01,45.98
	l-54.53-13.26L523.51,315.26z"/>
<path class="st1" d="M658.43,342.67l12.78,61.9c0,0,55.7,52.17,58.44,59.24s29.22-7.96,29.22-7.96s1.83-63-31.05-92.07
	s-40.18-37.91-40.18-37.91L658.43,342.67z"/>
<path class="st1" d="M735.74,482.38c0,0-5.18,28.3-12.48,49.52c-7.31,21.22-14.6,34.49-14.6,34.49s13.39,26.53,13.54,35.37
	c0.15,8.84,4.71,18.57,4.71,18.57s15.52,2.95,26.48-8.25c10.96-11.2,23.74-63.37,21.92-80.17s-0.91-54.5-12.78-56.43
	C750.65,473.54,735.74,482.38,735.74,482.38z"/>
<polygon class="st1" points="627.38,569.92 570.76,624.74 578.98,691.94 653.86,696.55 708.66,633.23 694.95,576.11 "/>
<polygon class="st1" points="590.97,470 617.33,553.12 559.81,615.9 493.19,597.98 543.37,454.97 "/>
<path class="st1" d="M570.76,704.32c0,0-59.27,37.14-77.57,33.6c-18.31-3.54,42.92,15.92,62.07,12.38s90.38-22.77,90.38-22.77
	v-15.25L570.76,704.32z"/>
<g>
	<path class="st7" d="M506.87,290.96c112.04-18.96,259,22.05,278.75,150.2c2.54,16.55,2.83,33.39,1.4,50.04
		c-0.02,0.22-0.21,0.38-0.43,0.36c-0.21-0.02-0.37-0.21-0.37-0.42c0.69-16.61,0.06-33.29-2.98-49.58
		c-15.25-88.62-93.62-135.83-176.98-148.59c-32.81-5.22-66.34-5.53-99.34-1.62c-0.11,0.01-0.21-0.07-0.22-0.17
		C506.69,291.08,506.77,290.98,506.87,290.96L506.87,290.96z"/>
</g>
<g>
	
		<ellipse transform="matrix(0.2321 -0.9727 0.9727 0.2321 -185.8422 724.87)" class="st8" cx="366.17" cy="480.14" rx="235.45" ry="137.03"/>
	<path class="st7" d="M415.82,272.02c-64.97-15.51-139.88,65.11-167.31,180.07c-27.44,114.95,2.99,220.71,67.96,236.22
		s139.88-65.11,167.31-180.07S480.79,287.53,415.82,272.02z M404.46,309.05c15.41,3.68,22.63,28.77,16.12,56.04
		c-6.51,27.27-24.28,46.4-39.69,42.72s-22.63-28.77-16.12-56.04C371.27,324.49,389.05,305.37,404.46,309.05z M269.76,433.48
		c6.51-27.27,24.28-46.4,39.69-42.72s22.63,28.77,16.12,56.04c-6.51,27.27-24.28,46.4-39.69,42.72S263.25,460.75,269.76,433.48z
		 M289.29,624.13c-15.41-3.68-22.63-28.77-16.12-56.04c6.51-27.27,24.28-46.4,39.69-42.72s22.63,28.77,16.12,56.04
		C322.47,608.68,304.7,627.81,289.29,624.13z M338.46,464.58c4.62-19.36,21.67-31.88,38.08-27.96
		c16.41,3.92,25.97,22.78,21.35,42.14c-4.62,19.36-21.67,31.88-38.08,27.96C343.4,502.81,333.84,483.94,338.46,464.58z
		 M369.7,643.32c-15.41-3.68-22.63-28.77-16.12-56.04c6.51-27.27,24.28-46.4,39.69-42.72c15.41,3.68,22.63,28.77,16.12,56.04
		S385.11,647,369.7,643.32z M428.75,523.62c-15.41-3.68-22.63-28.77-16.12-56.04c6.51-27.27,24.28-46.4,39.69-42.72
		s22.63,28.77,16.12,56.04S444.16,527.3,428.75,523.62z"/>
</g>
<g>
	<path class="st7" d="M696.97,714.52c-30.86,29.58-71.92,50.02-114.94,53.07c-42.84,2.12-86.97-7.72-123.86-29.86
		c-7.81-4.91-15.23-10.55-21.54-17.3c-2.07-2.29-3.99-4.7-5.71-7.26c-0.12-0.18-0.07-0.43,0.11-0.56c0.18-0.12,0.42-0.08,0.55,0.1
		c7.37,9.66,17.39,16.92,27.83,22.96c31.66,17.88,68.09,26.61,104.27,28.19c42.52,2.14,84.45-13.64,118.69-38.3
		c4.92-3.58,9.72-7.34,14.33-11.34C696.88,714.06,697.16,714.35,696.97,714.52L696.97,714.52z"/>
</g>
<path class="st9" d="M772.86,842.14c13.09,17.76,32.1,17,40.79,7.97c-3.66-6.94-15.3-12.12-29.23-10.1l23.09-13.11
	c16.8,4.88,32.98-3.83,39.91-18.14c-12.61-1.06-21.45,2.22-28.35,6.64l20.83-25.21c12.76-2.59,26.7-14.53,33.11-25.73
	c-9.45-0.92-17.06,1.37-24.84,7.82l13.61-32.3c7.83,1.89,22.89-8.43,28.58-21.23c-8.25-1.39-15.13,2.5-21.23,6.41
	c13.22-13.53,13.68-24.47,13.86-38.02c-10.88,4.76-15.74,17.07-18.42,33.66c1.16-8.82-3.05-21.53-6.76-27.42
	c-6.84,12.23-3.1,36.39,0.54,43.84l-13.24,32.83c2.78-9.79,1.09-26.04-2.88-35.07c-7.72,14.28-7.08,36.74-4.19,52.51l-21.58,24.13
	c4.63-6.59,7.72-23.67,8.22-35.65c-14.58,8.26-18.7,31.04-19.33,46.14l-21.92,13.68c6.2-6.52,13.27-23.95,12.17-35.48
	C782.78,803.43,775.37,829.2,772.86,842.14z"/>
<path class="st9" d="M266.81,845.43c-2.8-13.51-13.24-40.28-30.74-43.29c-1.61,12.07,8.44,30.14,16.35,36.87l-29.92-13.89
	c-0.73-15.77-5.62-39.54-25.53-47.9c0.58,12.53,4.65,30.33,11.47,37.1l-29.89-24.8c4.11-16.55,5.2-40.05-5.78-54.8
	c-4.44,9.46-6.91,26.49-3.18,36.68l-18.92-34.02c5.6-7.89,10.94-33.22,2.22-45.9c-6.22,6.28-11.57,19.62-10.05,28.82
	c-3.51-17.3-10.61-30.04-25.47-34.81c0.1,14.17,0.63,25.61,18.63,39.49c-8.31-3.97-17.71-7.9-29.02-6.3
	c7.65,13.28,28.75,23.76,39.49,21.62l18.36,33.5c-10.61-6.6-21.02-8.85-33.98-7.7c8.67,11.59,27.67,23.81,44.59,26.29l28.86,25.94
	c-9.43-4.48-21.5-7.74-38.8-6.39c9.36,14.83,31.45,23.62,53.98,18.22l32.06,13.24c-19.06-1.84-35.07,3.8-40.16,11.12
	C223.19,863.8,249.78,864.2,266.81,845.43z"/>
<line class="st3" x1="1059" y1="704.32" x2="1058" y2="704.32"/>
<g>
	<g>
		<path class="st7" d="M159.88,287.16c-0.82-0.95-1.23-1.43-2.05-2.38c0.22-0.25,0.33-0.38,0.55-0.64c0.55-0.63,0.97-1.28,1.25-1.94
			c0.29-0.66,0.4-1.43,0.35-2.31c-0.06-0.89-0.3-1.98-0.72-3.27c-4.16-12.8-8.04-25.7-11.63-38.67c2.79-2.99,4.19-4.46,7.01-7.38
			c10.88,5.73,21.6,11.77,32.13,18.11c0.81,0.43,1.54,0.69,2.2,0.8s1.29,0.03,1.9-0.23s1.21-0.67,1.79-1.23
			c0.23-0.22,0.35-0.34,0.59-0.56c0.74,1.04,1.11,1.56,1.84,2.6c-6.41,6.12-9.57,9.28-15.8,15.76c-0.77-1-1.16-1.5-1.94-2.51
			c0.63-0.65,0.94-0.98,1.57-1.63c0.7-0.72,1.16-1.43,1.39-2.15c0.23-0.71,0.09-1.4-0.42-2.07c-0.19-0.25-0.41-0.48-0.65-0.69
			c-0.24-0.21-0.48-0.39-0.73-0.57c-0.25-0.17-0.46-0.31-0.64-0.4c-2.12-1.22-3.18-1.82-5.32-3.02c-4.73,4.87-7.06,7.36-11.69,12.43
			c0.74,2.19,1.12,3.29,1.87,5.47c0.14,0.32,0.29,0.68,0.46,1.11c0.17,0.43,0.35,0.83,0.54,1.2c0.19,0.38,0.39,0.69,0.59,0.93
			c0.48,0.58,1.02,0.83,1.63,0.74s1.31-0.58,2.12-1.46c0.71-0.78,1.06-1.16,1.78-1.94c0.79,0.98,1.19,1.48,1.98,2.46
			C166.99,279,164.6,281.68,159.88,287.16z M159.57,261.32c3.88-4.23,5.83-6.31,9.78-10.4c-3.83-2.29-5.76-3.42-9.64-5.66
			c-0.83-0.44-1.63-0.89-2.4-1.33c-0.77-0.44-1.53-0.91-2.29-1.4c-0.75-0.49-1.5-1.01-2.23-1.55c0.37,0.87,0.73,1.74,1.06,2.62
			c0.33,0.88,0.66,1.78,0.97,2.67c0.32,0.9,0.6,1.85,0.85,2.85C157.21,254.02,157.99,256.46,159.57,261.32z"/>
		<path class="st7" d="M206.26,239.7c-0.71-1.06-1.07-1.6-1.78-2.66c0.56-0.5,0.84-0.75,1.39-1.25c0.53-0.47,1-1,1.41-1.58
			s0.63-1.22,0.66-1.94s-0.24-1.52-0.81-2.4c-5.35-8.23-10.71-16.46-16.06-24.68c-0.59-0.91-1.21-1.43-1.85-1.56
			s-1.27-0.02-1.9,0.32c-0.62,0.34-1.2,0.74-1.73,1.22c-0.6,0.53-0.89,0.8-1.49,1.33c-0.71-1.06-1.07-1.6-1.78-2.66
			c6.9-6.21,10.39-9.22,17.46-15.05c3.68-3.04,6.91-5.04,9.66-6.05c2.74-1.01,5.07-1.16,6.97-0.46c1.9,0.69,3.46,2.13,4.68,4.29
			c1.1,1.95,1.65,3.86,1.66,5.73c0.01,1.87-0.36,3.63-1.09,5.27s-1.65,3.2-2.74,4.69c5.14,2.17,7.69,3.28,12.73,5.59
			c1.77,0.82,3.23,1.32,4.39,1.48c1.15,0.16,2.2-0.11,3.14-0.81c0.13-0.09,0.19-0.14,0.31-0.23c0.63,1.13,0.94,1.7,1.57,2.83
			c-0.68,0.51-1.03,0.77-1.71,1.28c-2.07,1.56-3.88,2.77-5.42,3.61c-1.55,0.84-3,1.31-4.36,1.38s-2.78-0.24-4.27-0.96
			c-5.16-2.66-7.77-3.95-13.03-6.46c-1.36,1.13-2.04,1.69-3.4,2.83c2.53,4.05,3.79,6.08,6.32,10.14c0.56,0.89,1.11,1.45,1.66,1.67
			s1.11,0.19,1.69-0.08c0.57-0.27,1.17-0.66,1.78-1.17c0.39-0.32,0.58-0.48,0.97-0.8c0.67,1.1,1.01,1.65,1.68,2.75
			C216.21,230.88,212.86,233.76,206.26,239.7z M209.92,207.41c2.53-2.1,3.92-4.18,4.18-6.29c0.26-2.12-0.36-4.45-1.87-7
			c-1.06-1.78-2.15-3-3.29-3.65s-2.39-0.8-3.73-0.43c-1.35,0.37-2.86,1.24-4.52,2.62c-1.15,0.95-1.72,1.43-2.87,2.4
			c3.68,5.91,5.52,8.86,9.21,14.77C208.18,208.85,208.76,208.37,209.92,207.41z"/>
		<path class="st7" d="M265.81,194.57c-2.38,1.55-4.48,2.65-6.32,3.28s-3.41,0.9-4.73,0.8c-1.32-0.1-2.42-0.46-3.29-1.08
			c-0.88-0.62-1.54-1.37-1.99-2.24c-0.64-1.23-0.89-2.41-0.73-3.53c0.15-1.12,0.58-2.14,1.28-3.07c0.7-0.92,1.57-1.74,2.62-2.45
			c1.08,2.06,2.33,3.56,3.71,4.51c1.39,0.95,2.83,1.4,4.35,1.34c1.51-0.05,2.98-0.55,4.41-1.48c2.07-1.35,3.42-2.97,4.04-4.88
			s0.55-3.71-0.23-5.38c-0.59-1.27-1.43-2.14-2.53-2.6c-1.1-0.47-2.51-0.66-4.24-0.57c-1.73,0.09-3.83,0.39-6.3,0.89
			c-3.09,0.63-5.7,0.88-7.82,0.73c-2.12-0.15-3.91-0.72-5.35-1.72s-2.61-2.37-3.51-4.11c-1.16-2.25-1.54-4.6-1.1-7.04
			c0.43-2.44,1.5-4.82,3.21-7.12c1.71-2.3,3.91-4.33,6.61-6.08c2.81-1.82,5.29-2.96,7.41-3.44c2.12-0.48,3.87-0.48,5.25,0
			c1.37,0.48,2.31,1.28,2.82,2.41c0.59,1.31,0.53,2.71-0.16,4.19s-2.22,2.94-4.57,4.42c-0.57-1.23-1.36-2.29-2.37-3.17
			c-1.01-0.88-2.16-1.42-3.47-1.6c-1.31-0.18-2.69,0.2-4.14,1.14c-1.76,1.14-2.96,2.51-3.6,4.08s-0.54,3.18,0.28,4.83
			c0.51,1.03,1.24,1.81,2.18,2.35c0.94,0.54,2.3,0.78,4.08,0.73s4.21-0.34,7.16-0.93c3.03-0.6,5.64-0.84,7.76-0.61
			s3.86,0.85,5.24,1.86s2.48,2.45,3.32,4.33c1.07,2.41,1.4,4.88,0.99,7.42s-1.48,4.98-3.21,7.34
			C271.14,190.49,268.79,192.62,265.81,194.57z"/>
		<path class="st7" d="M342.67,154.16c-4.69,1.91-8.85,2.67-12.54,2.21c-3.69-0.45-6.86-1.92-9.52-4.46
			c-2.66-2.53-4.77-5.96-6.29-10.32c-1.48-4.24-1.97-8.36-1.41-12.38c0.55-4.01,2.21-7.71,4.98-11.04
			c2.77-3.33,6.67-6.06,11.66-8.09c3.44-1.4,6.4-2.21,8.85-2.47c2.46-0.25,4.4-0.06,5.81,0.57c1.42,0.63,2.3,1.61,2.67,2.95
			c0.39,1.41,0.05,2.87-1.01,4.37c-1.06,1.51-2.83,2.73-5.32,3.69c-0.48-1.65-1.16-2.98-2.06-3.99c-0.9-1.01-2.02-1.65-3.34-1.9
			c-1.33-0.26-2.85-0.04-4.55,0.65c-2.97,1.21-5.13,2.92-6.48,5.1s-1.98,4.77-1.91,7.77c0.07,3,0.74,6.42,2,10.26
			s2.73,6.89,4.39,9.17s3.61,3.73,5.84,4.36s4.82,0.33,7.79-0.88c0.72-0.29,1.43-0.62,2.11-0.98s1.33-0.73,1.95-1.11
			c-1.04-3.54-1.56-5.3-2.59-8.84c-0.32-1.08-0.72-1.87-1.22-2.37s-1.09-0.76-1.77-0.77c-0.68-0.02-1.5,0.16-2.43,0.54
			c-0.3,0.12-0.46,0.19-0.76,0.31c-0.39-1.27-0.58-1.91-0.96-3.18c7.28-2.97,10.94-4.37,18.3-7c0.34,1.29,0.52,1.93,0.86,3.22
			c-0.17,0.06-0.25,0.09-0.41,0.15c-0.79,0.28-1.41,0.66-1.87,1.14c-0.45,0.48-0.71,1.08-0.77,1.81s0.07,1.68,0.4,2.85
			c1.09,3.97,1.64,5.95,2.73,9.92c-1.96,1.92-3.99,3.59-6.1,5.01C347.58,151.88,345.25,153.11,342.67,154.16z"/>
		<path class="st7" d="M375.38,141.64c-0.31-1.3-0.46-1.95-0.77-3.25c0.65-0.21,0.98-0.31,1.63-0.51c0.62-0.19,1.2-0.46,1.75-0.81
			c0.54-0.34,0.94-0.84,1.19-1.48s0.25-1.5,0.01-2.56c-2.26-9.97-4.51-19.94-6.77-29.91c-0.25-1.11-0.64-1.86-1.18-2.27
			c-0.53-0.41-1.13-0.6-1.79-0.57s-1.3,0.14-1.92,0.33c-0.7,0.22-1.04,0.33-1.74,0.55c-0.31-1.3-0.46-1.95-0.77-3.25
			c8.06-2.56,12.11-3.75,20.24-5.93c4.24-1.14,7.76-1.53,10.53-1.24c2.77,0.3,4.91,1.2,6.4,2.69c1.5,1.49,2.45,3.51,2.88,6.04
			c0.39,2.28,0.29,4.29-0.29,6.02c-0.58,1.73-1.45,3.18-2.61,4.37c-1.17,1.18-2.47,2.21-3.92,3.09c3.94,4.29,5.88,6.46,9.7,10.84
			c1.34,1.55,2.5,2.66,3.49,3.32s2.01,0.88,3.07,0.65c0.14-0.03,0.21-0.05,0.35-0.08c0.21,1.32,0.32,1.99,0.53,3.31
			c-0.77,0.17-1.16,0.25-1.94,0.42c-2.35,0.52-4.34,0.82-5.99,0.91s-3.1-0.14-4.34-0.68s-2.42-1.47-3.53-2.79
			c-3.81-4.76-5.75-7.12-9.69-11.79c-1.57,0.42-2.35,0.64-3.91,1.07c1.01,4.86,1.52,7.3,2.54,12.16c0.22,1.07,0.55,1.83,0.97,2.28
			s0.94,0.68,1.54,0.69c0.6,0.01,1.25-0.08,1.95-0.27c0.45-0.12,0.67-0.18,1.11-0.3c0.26,1.31,0.39,1.97,0.65,3.28
			C386.98,138.06,383.1,139.19,375.38,141.64z M388.59,113.65c2.91-0.79,4.81-2.08,5.69-3.91c0.89-1.83,1.05-4.25,0.49-7.27
			c-0.4-2.11-1-3.72-1.82-4.84c-0.82-1.11-1.89-1.81-3.21-2.07c-1.32-0.26-2.94-0.14-4.86,0.38c-1.33,0.36-1.99,0.54-3.31,0.91
			c1.48,7.09,2.22,10.63,3.69,17.71C386.59,114.2,387.25,114.01,388.59,113.65z"/>
		<path class="st7" d="M427.23,128.64c-0.18-1.33-0.28-1.99-0.46-3.32c0.28-0.05,0.43-0.08,0.71-0.13c0.71-0.13,1.33-0.36,1.85-0.69
			c0.52-0.33,0.97-0.87,1.34-1.62s0.69-1.79,0.97-3.12c2.75-13.09,5.78-26.13,9.09-39.1c3.53-0.5,5.29-0.73,8.82-1.16
			c5.68,12.06,11.09,24.24,16.23,36.53c0.42,0.9,0.86,1.61,1.32,2.14c0.46,0.53,0.98,0.9,1.58,1.11c0.59,0.2,1.25,0.28,1.97,0.22
			c0.29-0.02,0.43-0.03,0.72-0.06c0.08,1.34,0.12,2.01,0.2,3.36c-7.84,0.61-11.76,1.01-19.57,1.99c-0.13-1.34-0.19-2.01-0.31-3.35
			c0.79-0.1,1.18-0.15,1.97-0.24c0.87-0.11,1.56-0.37,2.07-0.79s0.72-1.07,0.65-1.96c-0.03-0.34-0.09-0.67-0.18-1
			s-0.19-0.65-0.29-0.96c-0.11-0.31-0.21-0.56-0.31-0.76c-1.06-2.43-1.59-3.64-2.67-6.07c-5.91,0.71-8.86,1.11-14.76,2.02
			c-0.45,2.27-0.68,3.41-1.12,5.69c-0.04,0.35-0.09,0.75-0.16,1.21s-0.12,0.91-0.15,1.34c-0.03,0.43-0.02,0.82,0.02,1.15
			c0.1,0.8,0.4,1.37,0.9,1.72s1.27,0.44,2.3,0.28c0.9-0.14,1.36-0.21,2.26-0.34c0.15,1.34,0.22,2,0.37,3.34
			C436.42,127,433.35,127.51,427.23,128.64z M438.98,107.67c4.93-0.75,7.4-1.09,12.35-1.69c-1.87-4.47-2.82-6.7-4.75-11.15
			c-0.43-0.92-0.83-1.83-1.22-2.71c-0.38-0.89-0.75-1.79-1.1-2.7c-0.35-0.91-0.68-1.84-0.99-2.77c-0.12,0.95-0.25,1.9-0.41,2.84
			c-0.16,0.94-0.33,1.88-0.5,2.82c-0.18,0.94-0.4,1.9-0.68,2.88C440.57,100.17,440.03,102.67,438.98,107.67z"/>
		<path class="st7" d="M488.66,121.82c-0.04-1.35-0.06-2.02-0.09-3.36c0.67-0.03,1.01-0.04,1.68-0.06c0.84-0.03,1.57-0.15,2.21-0.35
			c0.63-0.21,1.13-0.61,1.48-1.21s0.51-1.49,0.49-2.68c-0.2-11.32-0.4-22.64-0.6-33.96c-2.04,0.05-3.06,0.08-5.11,0.15
			c-1.87,0.07-3.16,0.52-3.85,1.36c-0.7,0.84-1.1,1.96-1.22,3.36c-0.15,1.58-0.22,2.37-0.37,3.96c-1.69,0.08-2.53,0.12-4.22,0.22
			c-0.08-4.93-0.13-7.39-0.2-12.32c13.33-0.75,26.69-0.92,40.03-0.5c0.01,4.93,0.02,7.39,0.03,12.32c-1.69-0.05-2.53-0.08-4.22-0.11
			c-0.12-1.58-0.19-2.37-0.31-3.94c-0.15-1.4-0.57-2.51-1.28-3.33s-2.03-1.24-3.94-1.26c-2.07-0.02-3.1-0.03-5.17-0.02
			c0.01,11.32,0.02,22.65,0.04,33.97c0,1.19,0.19,2.07,0.57,2.67c0.38,0.59,0.89,0.98,1.53,1.18c0.64,0.19,1.35,0.29,2.15,0.3
			c0.67,0.01,1.01,0.01,1.68,0.02c-0.01,1.35-0.02,2.02-0.03,3.37C501.4,121.44,497.15,121.5,488.66,121.82z"/>
		<path class="st7" d="M532.26,122.42c0.07-1.34,0.1-2.02,0.16-3.36c0.86,0.06,1.29,0.09,2.15,0.15c0.6,0.04,1.16-0.03,1.69-0.23
			c0.53-0.19,0.97-0.54,1.32-1.05c0.35-0.5,0.55-1.22,0.61-2.15c0.61-10.33,1.21-20.65,1.82-30.98c0.06-1.01-0.06-1.81-0.37-2.38
			s-0.73-1-1.27-1.27c-0.54-0.27-1.13-0.43-1.77-0.48c-0.92-0.06-1.38-0.1-2.3-0.16c0.07-1.34,0.1-2.02,0.16-3.36
			c8.88,0.58,13.32,0.98,22.18,2c-0.11,1.34-0.17,2.01-0.29,3.35c-0.97-0.11-1.45-0.16-2.42-0.27c-0.68-0.07-1.31-0.02-1.87,0.15
			c-0.57,0.17-1.02,0.52-1.36,1.04c-0.34,0.52-0.55,1.3-0.63,2.36c-0.78,10.27-1.55,20.54-2.33,30.8c-0.07,0.89,0.03,1.63,0.28,2.23
			c0.26,0.6,0.63,1.04,1.13,1.33s1.05,0.46,1.64,0.53c0.91,0.1,1.36,0.15,2.27,0.25c-0.11,1.34-0.17,2.01-0.29,3.35
			C544.59,123.33,540.48,122.96,532.26,122.42z"/>
		<path class="st7" d="M566.47,126.06c0.15-1.34,0.22-2,0.37-3.34c0.29,0.04,0.43,0.06,0.71,0.11c0.71,0.11,1.36,0.09,1.94-0.06
			c0.58-0.14,1.14-0.52,1.68-1.12c0.53-0.6,1.1-1.49,1.69-2.68c5.82-11.65,11.91-23.17,18.26-34.54c3.51,0.67,5.26,1.03,8.76,1.77
			c2.51,13.4,4.75,26.86,6.7,40.35c0.19,1,0.44,1.83,0.75,2.49s0.72,1.19,1.25,1.58c0.52,0.39,1.14,0.68,1.84,0.85
			c0.28,0.07,0.42,0.11,0.7,0.18c-0.25,1.31-0.38,1.97-0.63,3.29c-7.7-1.98-11.57-2.88-19.32-4.49c0.21-1.32,0.31-1.99,0.52-3.31
			c0.78,0.16,1.17,0.24,1.95,0.41c0.87,0.18,1.59,0.16,2.18-0.08c0.59-0.24,0.96-0.79,1.1-1.67c0.05-0.33,0.08-0.67,0.08-1.02
			s-0.02-0.68-0.05-1.01c-0.03-0.33-0.07-0.61-0.11-0.83c-0.43-2.68-0.64-4.02-1.09-6.69c-5.86-1.25-8.79-1.83-14.67-2.88
			c-0.99,2.03-1.48,3.05-2.46,5.09c-0.12,0.32-0.27,0.69-0.45,1.11s-0.33,0.83-0.47,1.24c-0.13,0.4-0.22,0.78-0.27,1.11
			c-0.1,0.8,0.05,1.44,0.45,1.94s1.11,0.84,2.14,1.02c0.9,0.16,1.35,0.24,2.25,0.41c-0.18,1.33-0.28,1.99-0.46,3.32
			C575.68,127.48,572.61,126.97,566.47,126.06z M582.85,109.77c4.92,0.89,7.37,1.37,12.28,2.41c-0.71-4.9-1.08-7.35-1.84-12.25
			c-0.19-1.03-0.36-2.03-0.51-3c-0.15-0.98-0.29-1.96-0.4-2.95c-0.11-0.99-0.2-1.98-0.27-2.98c-0.35,0.88-0.71,1.74-1.09,2.59
			s-0.77,1.7-1.17,2.54c-0.4,0.85-0.85,1.69-1.35,2.54C586.21,103.1,585.08,105.32,582.85,109.77z"/>
		<path class="st7" d="M648.91,146.74c0.34-1.29,0.52-1.93,0.86-3.22c0.28,0.1,0.42,0.15,0.69,0.25c0.69,0.25,1.34,0.36,1.93,0.34
			c0.6-0.02,1.21-0.28,1.83-0.76s1.31-1.25,2.07-2.3c7.5-10.3,15.24-20.41,23.23-30.33c3.39,1.38,5.07,2.09,8.44,3.53
			c0.52,13.71,0.75,27.43,0.7,41.16c0.04,1.02,0.17,1.89,0.38,2.61s0.55,1.32,1.01,1.81s1.03,0.9,1.7,1.22
			c0.27,0.13,0.4,0.19,0.67,0.32c-0.44,1.24-0.67,1.87-1.11,3.11c-7.37-3.54-11.08-5.22-18.55-8.39c0.4-1.26,0.6-1.9,1-3.16
			c0.75,0.32,1.13,0.48,1.88,0.8c0.83,0.36,1.56,0.48,2.18,0.37s1.07-0.59,1.34-1.42c0.1-0.32,0.18-0.65,0.23-0.99
			c0.05-0.34,0.08-0.68,0.1-1.01c0.02-0.33,0.02-0.61,0.01-0.84c-0.03-2.73-0.05-4.09-0.09-6.82c-5.63-2.43-8.46-3.6-14.15-5.83
			c-1.28,1.8-1.92,2.71-3.19,4.52c-0.17,0.29-0.37,0.63-0.61,1s-0.45,0.75-0.64,1.12s-0.33,0.72-0.43,1.04
			c-0.22,0.76-0.17,1.43,0.16,2c0.32,0.57,0.98,1.05,1.98,1.44c0.87,0.34,1.31,0.52,2.18,0.86c-0.38,1.27-0.57,1.91-0.95,3.18
			C657.85,150,654.88,148.88,648.91,146.74z M667.58,134.01c4.75,1.88,7.12,2.86,11.84,4.88c0.02-4.97,0.02-7.46-0.02-12.45
			c-0.03-1.05-0.05-2.07-0.06-3.06s0-1.99,0.04-2.99s0.09-1.99,0.17-3c-0.47,0.79-0.96,1.57-1.46,2.33s-1.02,1.51-1.54,2.27
			c-0.52,0.75-1.1,1.49-1.72,2.23C671.9,128.12,670.45,130.08,667.58,134.01z"/>
		<path class="st7" d="M704,170.81c0.47-1.23,0.71-1.84,1.19-3.07c0.62,0.32,0.93,0.49,1.56,0.81c0.59,0.31,1.2,0.54,1.81,0.68
			c0.62,0.14,1.2,0.05,1.75-0.26s1.02-0.97,1.42-1.97c3.73-9.36,7.46-18.72,11.18-28.08c0.41-1.04,0.52-1.91,0.33-2.62
			c-0.19-0.71-0.56-1.3-1.09-1.77s-1.09-0.86-1.69-1.17c-0.66-0.35-1-0.52-1.66-0.87c0.47-1.23,0.71-1.84,1.19-3.07
			c7.72,4.01,11.55,6.11,19.15,10.49c3.96,2.29,6.96,4.62,8.98,6.92c2.03,2.3,3.21,4.61,3.57,6.87s0,4.54-1.06,6.81
			c-0.96,2.05-2.15,3.52-3.55,4.41c-1.41,0.9-2.9,1.36-4.48,1.4s-3.17-0.15-4.8-0.55c0.74,6.26,1.07,9.38,1.67,15.61
			c0.2,2.19,0.51,3.92,0.92,5.17c0.42,1.25,1.11,2.19,2.07,2.81c0.13,0.08,0.19,0.12,0.32,0.21c-0.56,1.18-0.85,1.77-1.41,2.94
			c-0.71-0.46-1.06-0.68-1.77-1.13c-2.14-1.37-3.89-2.63-5.24-3.8s-2.37-2.43-3.05-3.77c-0.68-1.35-1.1-2.94-1.24-4.79
			c-0.38-6.51-0.6-9.78-1.12-16.31c-1.47-0.84-2.2-1.26-3.67-2.09c-1.89,4.5-2.83,6.75-4.72,11.25c-0.42,0.99-0.58,1.82-0.49,2.48
			c0.09,0.66,0.36,1.22,0.83,1.67c0.47,0.45,1.03,0.87,1.69,1.25c0.42,0.24,0.62,0.36,1.04,0.6c-0.52,1.2-0.78,1.81-1.3,3.01
			C715.05,176.66,711.39,174.65,704,170.81z M729.79,159.08c2.72,1.56,4.93,1.99,6.64,1.24c1.71-0.74,3.18-2.48,4.4-5.23
			c0.85-1.92,1.27-3.61,1.23-5.08c-0.03-1.47-0.49-2.8-1.39-3.99c-0.89-1.19-2.24-2.31-4.04-3.34c-1.24-0.71-1.86-1.07-3.11-1.77
			c-2.75,6.56-4.12,9.84-6.87,16.39C727.92,158.01,728.54,158.36,729.79,159.08z"/>
		<path class="st7" d="M758.59,204.17c0.6-1.15,0.91-1.72,1.51-2.87c0.59,0.42,0.89,0.63,1.48,1.05c0.74,0.53,1.43,0.91,2.08,1.16
			c0.65,0.24,1.26,0.23,1.85-0.04c0.59-0.27,1.15-0.91,1.7-1.91c5.19-9.59,10.38-19.19,15.57-28.78c-1.79-1.31-2.69-1.95-4.49-3.24
			c-1.65-1.18-2.98-1.64-3.97-1.4c-1,0.24-1.88,0.91-2.65,2.01c-0.88,1.23-1.32,1.84-2.19,3.07c-1.49-1.04-2.24-1.55-3.74-2.58
			c2.26-4.17,3.39-6.26,5.66-10.43c11.93,8.34,23.51,16.98,34.91,26.04c-2.32,4.13-3.49,6.19-5.81,10.32
			c-1.44-1.17-2.16-1.76-3.61-2.91c0.64-1.4,0.96-2.1,1.6-3.51c0.54-1.27,0.69-2.48,0.46-3.64s-1.17-2.39-2.82-3.68
			c-1.79-1.39-2.68-2.08-4.48-3.45c-5.35,9.47-10.71,18.94-16.06,28.41c-0.56,0.99-0.82,1.86-0.77,2.61s0.3,1.41,0.77,2
			c0.46,0.58,1.04,1.14,1.73,1.68c0.58,0.45,0.87,0.68,1.45,1.13c-0.65,1.12-0.97,1.67-1.62,2.79
			C769.78,212.25,766.08,209.48,758.59,204.17z"/>
		<path class="st7" d="M796.14,233.69c0.69-1.08,1.04-1.62,1.73-2.7c0.72,0.63,1.08,0.94,1.81,1.57c0.5,0.44,1.03,0.76,1.58,0.95
			c0.55,0.2,1.1,0.2,1.65,0.02c0.54-0.18,1.06-0.65,1.55-1.38c5.42-8.22,10.84-16.45,16.26-24.67c0.53-0.81,0.8-1.56,0.81-2.24
			c0-0.69-0.17-1.33-0.51-1.93c-0.34-0.59-0.78-1.13-1.31-1.59c-0.77-0.67-1.16-1.01-1.93-1.68c0.69-1.08,1.04-1.62,1.73-2.7
			c7.47,6.48,11.15,9.83,18.42,16.74c-0.73,1.04-1.1,1.56-1.84,2.61c-0.79-0.75-1.19-1.13-1.99-1.88c-0.56-0.53-1.13-0.91-1.71-1.15
			c-0.58-0.24-1.14-0.26-1.68-0.06s-1.1,0.72-1.66,1.55c-5.54,8.06-11.08,16.12-16.62,24.18c-0.48,0.7-0.75,1.38-0.81,2.06
			s0.06,1.3,0.36,1.88s0.7,1.1,1.19,1.56c0.75,0.7,1.12,1.05,1.86,1.76c-0.73,1.04-1.1,1.56-1.84,2.61
			C806.47,242.79,803.06,239.69,796.14,233.69z"/>
		<path class="st7" d="M836.4,273.56c-2.08-2.25-3.68-4.31-4.8-6.2s-1.86-3.59-2.2-5.11c-0.34-1.51-0.4-2.86-0.17-4.03
			c0.23-1.17,0.64-2.14,1.22-2.9c0.82-1.08,1.71-1.71,2.69-1.86c0.98-0.16,1.97,0.02,2.96,0.54c0.99,0.52,1.96,1.26,2.89,2.24
			c-1.36,1.83-2.2,3.67-2.54,5.51c-0.34,1.84-0.24,3.61,0.31,5.31c0.54,1.7,1.43,3.22,2.68,4.57c1.81,1.96,3.61,3.03,5.41,3.19
			s3.28-0.44,4.42-1.81c0.86-1.03,1.31-2.24,1.33-3.62s-0.28-3.04-0.93-4.98c-0.65-1.94-1.59-4.24-2.82-6.89
			c-1.54-3.32-2.6-6.2-3.16-8.64c-0.57-2.44-0.67-4.62-0.31-6.53c0.36-1.92,1.12-3.64,2.28-5.16c1.49-1.97,3.32-3.08,5.49-3.31
			s4.49,0.28,6.96,1.54c2.47,1.26,4.89,3.17,7.23,5.72c2.44,2.66,4.22,5.16,5.33,7.43c1.11,2.28,1.69,4.28,1.75,5.99
			s-0.3,3.01-1.07,3.91c-0.9,1.05-2.09,1.38-3.55,1.01c-1.47-0.37-3.2-1.69-5.21-3.94c0.84-1.01,1.46-2.21,1.86-3.61
			c0.4-1.4,0.46-2.87,0.18-4.41c-0.28-1.54-1.06-3-2.32-4.38c-1.53-1.66-3.06-2.63-4.58-2.89s-2.83,0.31-3.93,1.72
			c-0.69,0.88-1.1,1.93-1.25,3.15c-0.14,1.22,0.1,2.83,0.73,4.83s1.67,4.66,3.14,7.86c1.51,3.27,2.57,6.18,3.09,8.67
			c0.52,2.48,0.58,4.66,0.2,6.52s-1.22,3.54-2.51,5.03c-1.65,1.92-3.61,2.99-5.87,3.25s-4.66-0.27-7.2-1.56
			C841.57,278.44,839.01,276.38,836.4,273.56z"/>
	</g>
</g>
<g>
	<g>
		<path class="st7" d="M387.76,899.05c10.35,3.92,17.51,14.62,14.28,25.77c-3.63,12.52-17.37,16.53-28.72,12.33
			c-11.13-4.13-19.6-16.14-14.34-27.79C363.85,898.52,376.97,894.97,387.76,899.05z M385.95,901.19
			c-6.07-2.26-12.76,1.45-16.79,11.27c-3.85,9.38-2.82,19.3,6.06,22.56c6.25,2.29,12.89-1.34,16.35-11.76
			C395.31,912,392.85,903.77,385.95,901.19z M379.21,934.24c6.41,8.53,12.21,14.72,16.8,17.83c-0.45,0.62-0.68,0.93-1.13,1.54
			c-3.16-0.69-8.28-2.42-10.73-3.92c-5.47-3.37-10.92-10.49-14.97-16.36C373.21,933.76,375.21,933.94,379.21,934.24z"/>
		<path class="st7" d="M466.83,920.96c-4.01-0.09-5.23,0.89-5.74,2.99c-0.43,1.75-0.81,3.77-1.35,7.93
			c-0.4,3.12-0.61,4.68-1.01,7.79c-0.66,5.12-2.25,10.21-6.63,13.2c-3.52,2.41-8.62,2.89-13.49,2.03
			c-4.52-0.81-8.88-2.62-11.58-5.44c-3.27-3.41-4.4-7.42-2.9-13.97c1.35-5.92,2.03-8.88,3.39-14.8c1.23-5.38,0.76-5.89-3.78-7.43
			c0.21-0.86,0.32-1.29,0.53-2.16c7.5,1.84,11.28,2.65,18.85,4.06c-0.16,0.87-0.24,1.31-0.41,2.18c-4.7-0.45-5.34-0.18-6.43,5.23
			c-1.26,6.26-1.9,9.39-3.16,15.64c-1.33,6.59,1.5,11.74,8.75,12.98c8.07,1.38,12.34-3.43,13.58-12.34
			c0.41-2.97,0.62-4.46,1.04-7.43c0.57-4.1,0.7-6.28,0.8-8.07c0.16-2.74-1.52-3.58-5.81-4.51c0.14-0.88,0.21-1.32,0.35-2.19
			c6.09,0.97,9.15,1.39,15.27,2.08C466.98,919.63,466.93,920.07,466.83,920.96z"/>
		<path class="st7" d="M517.44,949.51c-0.28,1.63-1.98,8.58-2.56,10.28c-11.94,0.3-23.89,0.04-35.8-0.79
			c0.06-0.86,0.09-1.29,0.15-2.15c6.27-0.11,6.69-0.44,6.95-5.47c0.47-9.16,0.71-13.73,1.18-22.89c0.26-5.09-0.47-5.47-4.68-6.11
			c0.06-0.89,0.09-1.33,0.15-2.21c8.04,0.53,12.07,0.68,20.11,0.74c6.5,0.05,8.66-0.11,9.53-0.19c0.09,1.08,0.5,5.99,0.84,9.7
			c-0.99,0.14-1.48,0.21-2.48,0.35c-0.61-2.03-1.73-4.48-2.78-5.55c-1.14-1.16-1.95-1.54-5.13-1.56c-1.62-0.01-2.43-0.02-4.06-0.05
			c-2.37-0.04-2.62,0.06-2.68,2.1c-0.13,5.01-0.2,7.52-0.33,12.53c2.55,0.07,3.83,0.09,6.38,0.11c3.64,0.03,4.3-0.89,5.24-5.15
			c1-0.01,1.5-0.01,2.5-0.02c0.07,5.35,0.11,8.03,0.18,13.38c-1.04,0.01-1.56,0.02-2.6,0.02c-1.09-4.43-1.61-5.13-5.41-5.17
			c-2.55-0.02-3.82-0.05-6.37-0.11c-0.11,4.13-0.16,6.19-0.27,10.32c-0.11,4.14-0.01,5.43,4.24,5.55c1.95,0.03,2.92,0.04,4.86,0.04
			c3.84,0.01,4.86-0.48,6.34-2.08c1.63-1.76,2.98-4.01,4-6.08C515.94,949.23,516.44,949.32,517.44,949.51z"/>
		<path class="st7" d="M575.66,915.84c-3.63,1.25-4.64,2.24-4.33,4.91c0.27,2.32,0.46,4.37,1.44,9.5
			c1.81,9.38,2.71,14.07,4.52,23.45c-1.52,0.29-2.28,0.44-3.81,0.71c-11.04-7.96-21.63-16.55-31.67-25.75
			c0.57,5.39,0.85,8.09,1.41,13.49c0.54,5.19,0.94,7.51,1.31,9.21c0.56,2.58,2.13,3.85,7.2,3.46c0.11,0.88,0.16,1.32,0.27,2.2
			c-6.79,0.84-10.2,1.19-17.02,1.72c-0.07-0.89-0.1-1.33-0.17-2.21c3.87-0.6,5.52-1.7,5.63-4.52c0.09-2.15-0.01-4.34-0.5-9.53
			c-0.54-5.66-0.81-8.49-1.35-14.16c-0.19-1.97-0.45-3.27-1.77-4.71c-1.26-1.38-2.76-1.43-5.39-1.47c-0.07-0.89-0.1-1.33-0.17-2.21
			c4.81-0.37,7.22-0.59,12.02-1.13c8.96,8.07,18.36,15.64,28.13,22.71c-0.78-4.25-1.17-6.37-1.94-10.62
			c-0.94-5.13-1.37-7.08-1.94-9.22c-0.66-2.49-1.86-3.53-7.01-2.99c-0.14-0.88-0.21-1.31-0.36-2.19c6.04-0.99,9.05-1.55,15.05-2.8
			C575.39,914.54,575.48,914.97,575.66,915.84z"/>
		<path class="st7" d="M638.48,924.74c0.2,3.14,0.15,8.04-0.16,10.4c-1.57,0.97-6.79,3.96-11.56,5.77
			c-11.26,4.27-27.16,0.62-30.37-11.71c-3.14-12.05,6.86-23.69,18.42-27.26c5.03-1.55,10.07-2.26,11.6-2.65
			c1.29,2.53,3.29,6.51,4.66,8.82c-0.9,0.53-1.36,0.79-2.26,1.31c-2.91-3.9-5.46-5.32-9.03-5.39c-1.63-0.06-3.84,0.45-5.45,0.99
			c-8.63,2.9-11,11.06-8.36,20.1c3.08,10.54,11.41,15.92,20.39,12.88c5.51-1.86,8.3-5.71,9.38-13.18
			C636.84,924.8,637.39,924.78,638.48,924.74z"/>
		<path class="st7" d="M689.94,900.25c0.51,1.57,2.24,8.54,2.52,10.31c-10.6,6.01-21.49,11.51-32.62,16.48
			c-0.35-0.79-0.53-1.18-0.88-1.97c5.57-3.08,5.8-3.57,3.66-8.14c-3.88-8.3-5.82-12.46-9.71-20.76c-2.16-4.62-3-4.6-7.07-3.16
			c-0.36-0.81-0.55-1.21-0.91-2.02c7.46-3.35,11.15-5.15,18.44-8.97c5.89-3.09,7.78-4.28,8.52-4.76c0.58,0.91,3.27,5.04,5.33,8.16
			c-0.83,0.6-1.24,0.91-2.08,1.5c-1.5-1.5-3.67-3.11-5.13-3.55c-1.58-0.48-2.48-0.41-5.37,1.1c-1.47,0.77-2.21,1.15-3.68,1.9
			c-2.16,1.1-2.34,1.31-1.42,3.14c2.24,4.49,3.36,6.73,5.6,11.22c2.33-1.16,3.49-1.75,5.8-2.96c3.3-1.72,3.47-2.86,2.31-7.07
			c0.9-0.49,1.35-0.73,2.25-1.23c2.58,4.69,3.87,7.03,6.46,11.72c-0.93,0.51-1.4,0.77-2.33,1.28c-3.07-3.39-3.87-3.75-7.32-1.95
			c-2.31,1.2-3.47,1.8-5.79,2.96c1.84,3.69,2.76,5.54,4.61,9.23c1.85,3.7,2.54,4.79,6.43,2.86c1.77-0.91,2.65-1.37,4.41-2.3
			c3.47-1.84,4.17-2.77,4.75-4.89c0.64-2.34,0.81-4.98,0.76-7.3C688.45,900.73,688.95,900.57,689.94,900.25z"/>
	</g>
</g>
</svg>
